<?xml version="1.0" encoding="UTF-8"?>
<!DOCTYPE svg PUBLIC "-//W3C//DTD SVG 1.1//EN" "http://www.w3.org/Graphics/SVG/1.1/DTD/svg11.dtd">
<!-- Creator: CorelDRAW 2020 (64-Bit) -->
<svg xmlns="http://www.w3.org/2000/svg" xml:space="preserve" width="2480px" height="3508px" version="1.1" style="shape-rendering:geometricPrecision; text-rendering:geometricPrecision; image-rendering:optimizeQuality; fill-rule:evenodd; clip-rule:evenodd"
viewBox="0 0 2480 3507.43"
 xmlns:xlink="http://www.w3.org/1999/xlink"
 xmlns:xodm="http://www.corel.com/coreldraw/odm/2003">
 <defs>
  <style type="text/css">
   <![CDATA[
    .str0 {stroke:black;stroke-width:4.17;stroke-miterlimit:22.9256}
    .fil0 {fill:white}
   ]]>
  </style>
 </defs>
 <g id="Layer_x0020_1">
  <metadata id="CorelCorpID_0Corel-Layer"/>
  <g id="_2481552826816">
   <path class="fil0 str0" d="M342.02 453.64c0,171.09 120.97,280.13 238.93,280.13 85.58,0 145.36,-8.74 212.49,-75.87 102.48,-102.48 102.48,-273.09 0,-375.56 -162.55,-162.55 -451.42,-47.12 -451.42,171.3z"/>
   <path class="fil0 str0" d="M555.77 244.08c-109.94,26.44 -210.56,133.21 -176.18,279.25 68.83,292.38 520.48,199.75 452.32,-106.63 -23.67,-106.39 -138.7,-205.67 -276.14,-172.62z"/>
   <path class="fil0 str0" d="M558.01 278.48c-263.75,71.9 -148.93,450.22 99.75,383.36 250.15,-67.25 148.78,-451.11 -99.75,-383.36z"/>
   <path class="fil0 str0" d="M557.22 311.21c-211.12,62.45 -118.69,384.51 101.11,318.33 196.6,-59.19 121.72,-384.24 -101.11,-318.33z"/>
   <path class="fil0 str0" d="M234.91 436.92l49.43 0.12c29.18,-43.14 42.17,-18 42.07,-90.2 -0.07,-51.48 -9.11,-68.76 -9.11,-123.89l-24.72 0 -49.43 0 -41.2 0c0,44.78 -5.96,64.58 -8.24,98.03l0 52.55c3.33,39.32 16.36,27.02 41.2,63.39z"/>
   <path class="fil0 str0" d="M902.27 503.67l49.44 0c18,-12.89 28.22,-33.91 32.95,-58.7l0 -81.26c-5.19,-36.54 -15.88,-72.16 -27.04,-97.25 -14.01,-31.52 -12.08,-42.55 -55.35,-43.51l0 280.72z"/>
   <path class="fil0 str0" d="M284.34 437.04l-49.43 -0.12 -9.19 231.89c0.31,34.12 -2.91,50.17 33.91,50.17 47.68,0 33.41,-43.66 33.24,-125.56 -0.12,-55.57 -8.53,-91.82 -8.53,-156.38z"/>
   <path class="fil0 str0" d="M951.71 503.67l-49.44 0c0,122.35 -21.98,225.08 40.26,214.78 38.74,-6.41 28.52,-55.92 22.21,-96.53 -6.89,-44.29 -3.56,-78.97 -13.03,-118.25z"/>
  </g>
 </g>
</svg>
